<svg>
	<symbol id="file" viewBox="0 0 24 24" xmlns="http://www.w3.org/2000/svg">
		<g>
			<path
				d="M2.75 10C2.75 9.58579 2.41421 9.25 2 9.25C1.58579 9.25 1.25 9.58579 1.25 10H2.75ZM21.25 14C21.25 14.4142 21.5858 14.75 22 14.75C22.4142 14.75 22.75 14.4142 22.75 14H21.25ZM15.3929 4.05365L14.8912 4.61112L15.3929 4.05365ZM19.3517 7.61654L18.85 8.17402L19.3517 7.61654ZM21.654 10.1541L20.9689 10.4592V10.4592L21.654 10.1541ZM3.17157 20.8284L3.7019 20.2981H3.7019L3.17157 20.8284ZM20.8284 20.8284L20.2981 20.2981L20.2981 20.2981L20.8284 20.8284ZM1.35509 5.92658C1.31455 6.33881 1.61585 6.70585 2.02807 6.7464C2.4403 6.78695 2.80734 6.48564 2.84789 6.07342L1.35509 5.92658ZM22.6449 18.0734C22.6855 17.6612 22.3841 17.2941 21.9719 17.2536C21.5597 17.2131 21.1927 17.5144 21.1521 17.9266L22.6449 18.0734ZM14 21.25H10V22.75H14V21.25ZM2.75 14V10H1.25V14H2.75ZM21.25 13.5629V14H22.75V13.5629H21.25ZM14.8912 4.61112L18.85 8.17402L19.8534 7.05907L15.8947 3.49618L14.8912 4.61112ZM22.75 13.5629C22.75 11.8745 22.7651 10.8055 22.3391 9.84897L20.9689 10.4592C21.2349 11.0565 21.25 11.742 21.25 13.5629H22.75ZM18.85 8.17402C20.2034 9.3921 20.7029 9.86199 20.9689 10.4592L22.3391 9.84897C21.9131 8.89241 21.1084 8.18853 19.8534 7.05907L18.85 8.17402ZM10.0298 2.75C11.6116 2.75 12.2085 2.76158 12.7405 2.96573L13.2779 1.5653C12.4261 1.23842 11.498 1.25 10.0298 1.25V2.75ZM15.8947 3.49618C14.8087 2.51878 14.1297 1.89214 13.2779 1.5653L12.7405 2.96573C13.2727 3.16993 13.7215 3.55836 14.8912 4.61112L15.8947 3.49618ZM10 21.25C8.09318 21.25 6.73851 21.2484 5.71085 21.1102C4.70476 20.975 4.12511 20.7213 3.7019 20.2981L2.64124 21.3588C3.38961 22.1071 4.33855 22.4392 5.51098 22.5969C6.66182 22.7516 8.13558 22.75 10 22.75V21.25ZM1.25 14C1.25 15.8644 1.24841 17.3382 1.40313 18.489C1.56076 19.6614 1.89288 20.6104 2.64124 21.3588L3.7019 20.2981C3.27869 19.8749 3.02502 19.2952 2.88976 18.2892C2.75159 17.2615 2.75 15.9068 2.75 14H1.25ZM14 22.75C15.8644 22.75 17.3382 22.7516 18.489 22.5969C19.6614 22.4392 20.6104 22.1071 21.3588 21.3588L20.2981 20.2981C19.8749 20.7213 19.2952 20.975 18.2892 21.1102C17.2615 21.2484 15.9068 21.25 14 21.25V22.75ZM10.0298 1.25C8.15538 1.25 6.67442 1.24842 5.51887 1.40307C4.34232 1.56054 3.39019 1.8923 2.64124 2.64124L3.7019 3.7019C4.12453 3.27928 4.70596 3.02525 5.71785 2.88982C6.75075 2.75158 8.11311 2.75 10.0298 2.75V1.25ZM2.84789 6.07342C2.96931 4.83905 3.23045 4.17335 3.7019 3.7019L2.64124 2.64124C1.80633 3.47616 1.48944 4.56072 1.35509 5.92658L2.84789 6.07342ZM21.1521 17.9266C21.0307 19.1609 20.7695 19.8266 20.2981 20.2981L21.3588 21.3588C22.1937 20.5238 22.5106 19.4393 22.6449 18.0734L21.1521 17.9266Z"
				fill="#1C274C" />
			<path d="M13 2.5V5C13 7.35702 13 8.53553 13.7322 9.26777C14.4645 10 15.643 10 18 10H22"
				stroke="#1C274C" stroke-width="1.5" />
		</g>
	</symbol>
	<symbol id="folder" viewBox="0 0 24 24" xmlns="http://www.w3.org/2000/svg">
		<g>
			<path opacity="0.5" d="M18 10L13 10" stroke="#1C274C" stroke-width="1.5"
				stroke-linecap="round" />
			<path
				d="M2 6.94975C2 6.06722 2 5.62595 2.06935 5.25839C2.37464 3.64031 3.64031 2.37464 5.25839 2.06935C5.62595 2 6.06722 2 6.94975 2C7.33642 2 7.52976 2 7.71557 2.01738C8.51665 2.09229 9.27652 2.40704 9.89594 2.92051C10.0396 3.03961 10.1763 3.17633 10.4497 3.44975L11 4C11.8158 4.81578 12.2237 5.22367 12.7121 5.49543C12.9804 5.64471 13.2651 5.7626 13.5604 5.84678C14.0979 6 14.6747 6 15.8284 6H16.2021C18.8345 6 20.1506 6 21.0062 6.76946C21.0849 6.84024 21.1598 6.91514 21.2305 6.99383C22 7.84935 22 9.16554 22 11.7979V14C22 17.7712 22 19.6569 20.8284 20.8284C19.6569 22 17.7712 22 14 22H10C6.22876 22 4.34315 22 3.17157 20.8284C2 19.6569 2 17.7712 2 14V6.94975Z"
				stroke="#1C274C" stroke-width="1.5" />
		</g>
	</symbol>
	<symbol id="folder-opened" viewBox="0 0 24 24" xmlns="http://www.w3.org/2000/svg">
		<g>
			<path opacity="0.5"
				d="M4 11.5V5.71231C4 5.05041 4 4.71946 4.05548 4.44379C4.29971 3.23023 5.31225 2.28098 6.60671 2.05201C6.90076 2 7.25377 2 7.9598 2C8.26914 2 8.42381 2 8.57246 2.01303C9.21332 2.06921 9.82122 2.30528 10.3168 2.69039C10.4317 2.77971 10.5411 2.88224 10.7598 3.08731L11.2 3.5C11.8526 4.11183 12.1789 4.41775 12.5697 4.62157C12.7844 4.73353 13.012 4.82195 13.2483 4.88508C13.6783 5 14.1398 5 15.0627 5H15.3617C17.4676 5 18.5205 5 19.2049 5.5771C19.2679 5.63018 19.3278 5.68635 19.3844 5.74537C20 6.38701 20 7.37415 20 9.34843V11.5"
				stroke="#1C274C" stroke-width="1.5" />
			<path opacity="0.5" d="M10 17H14" stroke="#1C274C" stroke-width="1.5" stroke-linecap="round" />
			<path
				d="M3.47674 17.4839C2.99958 14.7678 2.761 13.4097 3.33908 12.433C3.4866 12.1838 3.66852 11.9582 3.87908 11.7634C4.7042 11 6.0379 11 8.7053 11H15.2947C17.9621 11 19.2958 11 20.1209 11.7634C20.3315 11.9582 20.5134 12.1838 20.6609 12.433C21.239 13.4097 21.0004 14.7678 20.5233 17.4839C20.1798 19.4391 20.008 20.4167 19.4129 21.0655C19.2585 21.2338 19.0858 21.383 18.8982 21.5101C18.175 22 17.2149 22 15.2947 22H8.70531C6.7851 22 5.825 22 5.10183 21.5101C4.9142 21.383 4.74145 21.2338 4.58706 21.0655C3.99198 20.4167 3.82024 19.4391 3.47674 17.4839Z"
				stroke="#1C274C" stroke-width="1.5" />
		</g>
	</symbol>
	<symbol id="arrow" viewBox="0 0 16 16" xmlns="http://www.w3.org/2000/svg">
		<g>
			<path
				d="M15.795 11.272L7.795 16.272C6.79593 16.8964 5.5 16.1782 5.5 15L5.5 5.00002C5.5 3.82186 6.79593 3.1036 7.795 3.72802L15.795 8.72802C16.735 9.31552 16.735 10.6845 15.795 11.272Z"
				fill="#000000" />
		</g>
	</symbol>
</svg>